<?xml version="1.0" encoding="UTF-8" standalone="no"?><!DOCTYPE svg PUBLIC "-//W3C//DTD SVG 1.1//EN" "http://www.w3.org/Graphics/SVG/1.1/DTD/svg11.dtd"><svg width="100%" height="100%" viewBox="0 0 768 768" version="1.1" xmlns="http://www.w3.org/2000/svg" xmlns:xlink="http://www.w3.org/1999/xlink" xml:space="preserve" xmlns:serif="http://www.serif.com/" style="fill-rule:evenodd;clip-rule:evenodd;stroke-linecap:round;stroke-linejoin:round;stroke-miterlimit:1.5;"><rect id="icon" x="0" y="0" width="768" height="768" style="fill:none;"/><clipPath id="_clip1"><rect x="0" y="0" width="768" height="768"/></clipPath><g clip-path="url(#_clip1)"><circle cx="384" cy="384" r="384" style="fill:#009dff;"/><g><path d="M167.697,266.523l-115.722,117.477l115.722,117.477" style="fill:none;stroke:#ebebeb;stroke-width:49.57px;"/><path d="M600.303,266.523l115.722,117.477l-115.722,117.477" style="fill:none;stroke:#ebebeb;stroke-width:49.57px;"/><path d="M706.267,359.216l4.08,0.338l3.968,1.005l3.748,1.644l3.427,2.239l3.011,2.773l2.514,3.23l1.948,3.6l1.329,3.871l0.674,4.038l-0.001,4.093l-0.673,4.038l-1.33,3.871l-1.948,3.6l-2.514,3.23l-3.012,2.772l-3.427,2.239l-3.748,1.644l-3.968,1.005l-4.08,0.337l-148.702,-0.005l-4.079,-0.338l-3.968,-1.005l-3.749,-1.644l-3.426,-2.239l-3.012,-2.773l-2.514,-3.23l-1.948,-3.6l-1.329,-3.872l-0.673,-4.037l0,-4.093l0.674,-4.038l1.329,-3.871l1.948,-3.6l2.514,-3.23l3.012,-2.772l3.427,-2.239l3.748,-1.644l3.968,-1.005l4.08,-0.337l148.702,0.005Zm-247.837,-0.009l4.079,0.338l3.968,1.005l3.748,1.644l3.427,2.239l3.011,2.773l2.514,3.23l1.948,3.6l1.329,3.872l0.674,4.037l0,4.093l-0.674,4.038l-1.329,3.871l-1.949,3.6l-2.514,3.23l-3.011,2.772l-3.427,2.239l-3.749,1.644l-3.968,1.005l-4.079,0.337l-148.703,-0.005l-4.079,-0.338l-3.968,-1.005l-3.748,-1.644l-3.427,-2.239l-3.011,-2.773l-2.514,-3.23l-1.949,-3.6l-1.328,-3.871l-0.674,-4.038l0,-4.093l0.674,-4.038l1.329,-3.871l1.948,-3.6l2.515,-3.23l3.011,-2.772l3.427,-2.239l3.749,-1.644l3.968,-1.005l4.079,-0.337l148.703,0.005Zm-247.838,-0.009l4.079,0.338l3.968,1.005l3.749,1.645l3.426,2.238l3.012,2.773l2.514,3.23l1.948,3.6l1.329,3.872l0.673,4.037l0,4.093l-0.674,4.038l-1.329,3.871l-1.948,3.6l-2.515,3.23l-3.011,2.772l-3.427,2.239l-3.748,1.644l-3.969,1.005l-4.079,0.338l-148.702,-0.006l-4.08,-0.338l-3.968,-1.005l-3.748,-1.644l-3.427,-2.239l-3.011,-2.773l-2.514,-3.23l-1.948,-3.6l-1.329,-3.871l-0.674,-4.038l0,-4.093l0.674,-4.037l1.33,-3.872l1.948,-3.6l2.514,-3.23l3.012,-2.772l3.427,-2.239l3.748,-1.644l3.968,-1.004l4.079,-0.338l148.703,0.005Z" style="fill:#ebebeb;"/></g></g></svg>