<?xml version="1.0" encoding="UTF-8" standalone="no"?><!DOCTYPE svg PUBLIC "-//W3C//DTD SVG 1.1//EN" "http://www.w3.org/Graphics/SVG/1.1/DTD/svg11.dtd"><svg width="100%" height="100%" viewBox="0 0 15 15" version="1.1" xmlns="http://www.w3.org/2000/svg" xmlns:xlink="http://www.w3.org/1999/xlink" xml:space="preserve" xmlns:serif="http://www.serif.com/" style="fill-rule:evenodd;clip-rule:evenodd;stroke-linejoin:round;stroke-miterlimit:1.41421;"><rect id="autostart_enabled" x="0" y="0.008" width="15" height="15" style="fill:none;"/><rect x="6.742" y="0.763" width="1.517" height="5.218" style="fill:#009dff;"/><path d="M5.625,2.73l0,1.092c-1.973,0.755 -3.375,2.667 -3.375,4.904c0,2.898 2.352,5.25 5.25,5.25c2.898,0 5.25,-2.352 5.25,-5.25c0,-2.237 -1.402,-4.149 -3.375,-4.904l0,-1.092c2.552,0.798 4.407,3.182 4.407,5.996c0,3.467 -2.815,6.282 -6.282,6.282c-3.467,0 -6.282,-2.815 -6.282,-6.282c0,-2.814 1.855,-5.198 4.407,-5.996Z" style="fill:#009dff;"/></svg>